<?xml version="1.0" standalone="no"?>
<!DOCTYPE svg PUBLIC "-//W3C//DTD SVG 20010904//EN"
 "http://www.w3.org/TR/2001/REC-SVG-20010904/DTD/svg10.dtd">
<svg version="1.0" xmlns="http://www.w3.org/2000/svg"
 width="700.000000pt" height="700.000000pt" viewBox="0 0 700.000000 700.000000"
 preserveAspectRatio="xMidYMid meet">
<metadata>
Created by potrace 1.14, written by Peter Selinger 2001-2017
</metadata>
<g transform="translate(0.000000,700.000000) scale(0.100000,-0.100000)"
fill="#000000" stroke="none">
<path d="M3350 6993 c-340 -18 -646 -74 -953 -175 l-130 -43 628 -3 c623 -2
629 -2 672 19 55 27 92 80 99 146 l6 50 -47 6 c-46 7 -157 7 -275 0z"/>
<path d="M4060 6923 c0 -37 30 -84 76 -119 l37 -29 281 -2 281 -3 -65 26
c-126 49 -418 126 -567 149 -42 7 -43 6 -43 -22z"/>
<path d="M2655 6376 c-37 -16 -92 -77 -101 -112 -13 -51 1 -131 30 -168 42
-56 77 -69 201 -76 125 -7 159 -20 202 -82 74 -108 14 -257 -117 -287 -28 -7
-254 -11 -597 -11 -366 0 -561 -4 -580 -11 -61 -23 -113 -100 -113 -169 0 -51
32 -113 74 -145 32 -24 50 -29 137 -36 111 -10 142 -22 187 -73 76 -87 47
-232 -58 -286 -38 -19 -60 -20 -833 -20 l-794 0 -46 -117 c-49 -128 -95 -265
-127 -383 -20 -77 -70 -306 -70 -326 0 -6 18 6 39 27 28 26 55 40 91 48 65 14
559 14 620 0 172 -40 203 -272 47 -348 -44 -21 -54 -22 -369 -19 l-325 3 -40
27 c-23 15 -49 44 -60 67 -19 38 -21 40 -27 18 -3 -13 -10 -108 -16 -211 -27
-446 44 -935 196 -1359 37 -104 110 -279 144 -346 l30 -61 672 0 671 0 -34 23
c-115 78 -116 236 -1 313 l32 22 -147 4 c-166 3 -190 11 -246 81 -24 30 -32
49 -35 95 -9 123 70 202 200 202 l63 0 -33 17 c-71 35 -121 127 -107 196 20
92 86 149 185 162 30 4 70 14 88 22 70 33 112 128 91 205 -23 87 -77 129 -179
143 -113 14 -184 88 -184 190 0 61 23 105 77 149 l39 31 426 3 c279 2 440 -1
463 -7 77 -23 129 -94 129 -176 0 -60 -19 -103 -63 -142 -34 -29 -54 -38 -142
-58 -42 -9 -112 -85 -121 -130 -10 -55 1 -112 31 -151 55 -72 30 -68 530 -74
l450 -5 46 -27 c53 -31 74 -59 90 -120 21 -79 -29 -181 -106 -214 -29 -13 -28
-13 33 -14 122 0 202 -74 202 -185 0 -60 -19 -103 -63 -142 -46 -40 -91 -53
-192 -53 l-80 0 33 -21 c111 -71 108 -250 -5 -321 -34 -21 -52 -23 -181 -26
l-142 -4 41 -30 c107 -78 103 -238 -9 -309 -43 -27 -53 -29 -146 -29 l-101 0
43 -21 c119 -59 136 -225 33 -312 -33 -27 -106 -47 -174 -47 l-42 0 37 -26
c107 -77 102 -238 -10 -315 l-36 -24 -605 -5 -606 -5 115 -86 c733 -550 1650
-787 2565 -663 66 9 122 18 124 19 2 2 -13 18 -33 36 -49 43 -66 78 -66 138 0
85 30 135 102 172 35 18 66 19 549 19 l511 0 117 69 c125 74 321 209 386 266
l40 34 -170 1 c-188 1 -224 9 -277 66 -87 94 -55 239 67 295 37 17 71 19 412
19 l373 0 81 98 c82 98 199 255 199 266 0 3 -67 6 -149 6 -82 0 -162 5 -178
11 -60 22 -122 109 -123 169 0 89 52 154 156 194 105 40 154 98 154 186 0 50
-15 88 -48 123 -38 40 -67 53 -145 65 -82 13 -130 45 -158 106 -25 54 -24 110
2 164 25 51 71 84 151 106 99 28 151 90 151 181 0 77 -48 149 -116 174 -18 7
-163 11 -405 11 -244 0 -391 4 -417 11 -22 6 -56 28 -76 48 -111 110 -46 296
109 316 88 12 104 17 138 47 48 42 67 83 67 143 0 80 -40 138 -115 170 -31 12
-89 15 -335 15 -332 0 -351 4 -406 69 -70 83 -49 217 43 274 33 21 49 22 295
27 237 5 263 7 294 25 106 62 134 196 59 281 -41 46 -69 60 -151 72 -81 13
-127 43 -158 104 -45 87 -5 204 83 247 38 18 62 21 174 21 l129 0 -42 21 c-86
42 -125 152 -85 241 19 43 74 96 103 100 8 1 -43 4 -113 7 -120 6 -129 8 -169
36 -107 76 -111 230 -7 306 l39 28 -333 3 c-374 3 -368 2 -431 81 -24 30 -32
49 -35 96 -9 122 70 201 201 201 151 0 234 74 225 201 -5 70 -41 122 -102 150
-39 18 -85 19 -1011 18 -779 0 -976 -2 -1000 -13z m1227 -385 c59 -41 83 -85
83 -157 0 -53 -4 -68 -30 -105 -53 -74 -83 -84 -291 -87 -203 -4 -247 3 -298
49 -97 84 -79 249 31 309 35 18 54 20 254 17 209 -2 217 -3 251 -26z m-2301
-1473 c79 -27 129 -96 129 -178 0 -189 -250 -259 -345 -96 -87 149 55 330 216
274z m2370 -2630 c54 -32 74 -59 89 -121 15 -58 0 -115 -43 -164 -51 -59 -72
-63 -297 -63 -210 0 -233 4 -284 49 -51 45 -71 146 -42 214 16 40 77 95 114
103 15 3 32 7 37 9 6 3 93 3 195 2 181 -2 186 -3 231 -29z"/>
<path d="M5527 6322 c-41 -45 -49 -139 -17 -202 32 -62 83 -90 182 -99 95 -9
113 -16 156 -65 39 -45 56 -97 48 -150 -15 -91 -87 -152 -193 -163 l-54 -6 28
-17 c127 -79 126 -242 -2 -321 -30 -19 -29 -19 180 -19 209 0 210 0 180 19
-40 24 -61 49 -80 94 -41 98 18 218 123 247 53 14 117 12 159 -5 20 -8 37 -14
39 -12 2 1 -36 50 -83 107 -151 185 -412 432 -614 583 -34 26 -37 26 -52 9z"/>
<path d="M6355 5457 c0 -74 -26 -122 -85 -156 l-35 -21 95 0 c89 0 140 -7 184
-25 17 -8 17 -6 4 16 -30 48 -160 249 -162 249 0 0 -1 -29 -1 -63z"/>
<path d="M6611 5067 c-2 -57 -45 -118 -103 -148 -32 -17 -61 -19 -220 -19
l-183 0 41 -19 c110 -50 140 -200 58 -291 -36 -40 -66 -54 -144 -65 -104 -16
-170 -88 -170 -185 0 -50 15 -88 48 -123 60 -64 44 -62 540 -65 l452 -3 0 23
c0 55 -97 408 -123 450 -8 12 -18 39 -22 58 -9 50 -69 201 -125 316 -37 77
-49 93 -49 71z"/>
<path d="M6932 2926 c-6 -15 -11 -53 -11 -84 l1 -57 14 70 c16 81 15 112 -4
71z"/>
<path d="M6710 2278 c-129 -37 -179 -190 -96 -293 l25 -30 35 76 c33 71 106
247 106 255 0 7 -33 3 -70 -8z"/>
<path d="M610 1533 c0 -10 163 -224 232 -305 35 -40 99 -110 142 -156 l80 -83
17 47 c35 91 101 133 207 134 131 0 213 69 214 180 0 86 -51 158 -130 180 -41
11 -762 15 -762 3z"/>
</g>
</svg>
