<svg width="154" height="154" viewBox="0 0 154 154" fill="none" xmlns="http://www.w3.org/2000/svg">
<circle cx="77" cy="77" r="77" fill="#F7CC7F"/>
<mask id="mask0" mask-type="alpha" maskUnits="userSpaceOnUse" x="0" y="0" width="154" height="154">
<circle cx="77" cy="77" r="77" fill="white"/>
</mask>
<g mask="url(#mask0)">
<path fill-rule="evenodd" clip-rule="evenodd" d="M118.965 13.475C118.965 10.9234 116.897 8.85498 114.345 8.85498H15.4C12.8484 8.85498 10.78 10.9234 10.78 13.475C10.78 16.0265 12.8484 18.095 15.4 18.095H61.6C64.1515 18.095 66.22 20.1634 66.22 22.715C66.22 25.2665 64.1515 27.335 61.6 27.335H60.06C57.5084 27.335 55.44 29.4034 55.44 31.955C55.44 34.5065 57.5084 36.575 60.06 36.575H89.32C91.8715 36.575 93.94 34.5065 93.94 31.955C93.94 29.4034 91.8715 27.335 89.32 27.335H88.165L88.1646 27.331C85.7025 27.2299 83.7376 25.2019 83.7376 22.715C83.7376 20.2281 85.7025 18.2001 88.1646 18.0989L88.165 18.095H114.345C116.897 18.095 118.965 16.0265 118.965 13.475ZM111.65 50.435C111.65 47.8834 109.582 45.815 107.03 45.815H83.16C80.6084 45.815 78.54 47.8834 78.54 50.435C78.54 52.9865 80.6084 55.055 83.16 55.055H107.03C109.582 55.055 111.65 52.9865 111.65 50.435ZM-3.65753 64.295C-1.10597 64.295 0.962471 66.3634 0.962471 68.915C0.962471 71.4665 -1.10597 73.535 -3.65753 73.535H-20.5975C-23.1491 73.535 -25.2175 71.4665 -25.2175 68.915C-25.2175 66.3634 -23.1491 64.295 -20.5975 64.295H-3.65753ZM116.27 68.915C116.27 66.3634 114.202 64.295 111.65 64.295H22.715C20.1634 64.295 18.095 66.3634 18.095 68.915C18.095 71.4665 20.1634 73.535 22.715 73.535H49.665C52.2165 73.535 54.285 75.6034 54.285 78.155C54.285 80.7065 52.2165 82.775 49.665 82.775H46.2C43.6484 82.775 41.58 84.8434 41.58 87.395C41.58 89.9465 43.6484 92.015 46.2 92.015H100.87C103.422 92.015 105.49 94.0834 105.49 96.635C105.49 99.1865 103.422 101.255 100.87 101.255H98.56C96.0084 101.255 93.94 103.323 93.94 105.875C93.94 108.427 96.0084 110.495 98.56 110.495H127.82C130.372 110.495 132.44 108.427 132.44 105.875C132.44 103.323 130.372 101.255 127.82 101.255H127.435L127.435 101.251C124.973 101.15 123.008 99.1219 123.008 96.635C123.008 94.1481 124.973 92.1201 127.435 92.0189L127.435 92.015H135.135C137.687 92.015 139.755 89.9465 139.755 87.395C139.755 84.8434 137.687 82.775 135.135 82.775H104.335L104.335 82.771C101.873 82.6701 99.9076 80.642 99.9076 78.155C99.9076 75.6679 101.873 73.6399 104.335 73.5389L104.335 73.535H111.65C114.202 73.535 116.27 71.4665 116.27 68.915ZM123.97 124.355C123.97 121.803 121.902 119.735 119.35 119.735H30.415C27.8634 119.735 25.795 121.803 25.795 124.355C25.795 126.907 27.8634 128.975 30.415 128.975H46.2C48.7515 128.975 50.82 131.043 50.82 133.595C50.82 136.147 48.7515 138.215 46.2 138.215H44.66C42.1084 138.215 40.04 140.283 40.04 142.835C40.04 145.387 42.1084 147.455 44.66 147.455H73.92C76.4715 147.455 78.54 145.387 78.54 142.835C78.54 140.283 76.4715 138.215 73.92 138.215H72.765L72.7646 138.211C70.3025 138.11 68.3376 136.082 68.3376 133.595C68.3376 131.108 70.3025 129.08 72.7646 128.979L72.765 128.975H119.35C121.902 128.975 123.97 126.907 123.97 124.355ZM45.045 101.255C47.5965 101.255 49.665 103.323 49.665 105.875C49.665 108.427 47.5965 110.495 45.045 110.495H15.785C13.2334 110.495 11.165 108.427 11.165 105.875C11.165 103.323 13.2334 101.255 15.785 101.255H45.045ZM175.175 87.395C175.175 84.8434 173.107 82.775 170.555 82.775H154.77C152.218 82.775 150.15 84.8434 150.15 87.395C150.15 89.9465 152.218 92.015 154.77 92.015H170.555C173.107 92.015 175.175 89.9465 175.175 87.395ZM53.515 45.815C56.0665 45.815 58.135 47.8834 58.135 50.435C58.135 52.9865 56.0665 55.055 53.515 55.055H45.815C43.2634 55.055 41.195 52.9865 41.195 50.435C41.195 47.8834 43.2634 45.815 45.815 45.815H53.515ZM115.5 27.335C118.052 27.335 120.12 29.4034 120.12 31.955C120.12 34.5065 118.052 36.575 115.5 36.575H107.8C105.248 36.575 103.18 34.5065 103.18 31.955C103.18 29.4034 105.248 27.335 107.8 27.335H115.5ZM46.2 31.955C46.2 29.4034 44.1315 27.335 41.58 27.335H33.88C31.3284 27.335 29.26 29.4034 29.26 31.955C29.26 34.5065 31.3284 36.575 33.88 36.575H41.58C44.1315 36.575 46.2 34.5065 46.2 31.955Z" fill="#FFE6AE"/>
</g>
<mask id="mask1" mask-type="alpha" maskUnits="userSpaceOnUse" x="0" y="0" width="154" height="154">
<circle cx="77" cy="77" r="77" fill="white"/>
</mask>
<g mask="url(#mask1)">
<path fill-rule="evenodd" clip-rule="evenodd" d="M33.495 73.5349C36.0465 73.5349 38.115 75.6034 38.115 78.1549C38.115 80.7065 36.0465 82.7749 33.495 82.7749H31.955C29.4034 82.7749 27.335 84.8434 27.335 87.3949C27.335 89.9465 29.4034 92.0149 31.955 92.0149H61.215C63.7665 92.0149 65.835 89.9465 65.835 87.3949C65.835 84.8434 63.7665 82.7749 61.215 82.7749H60.06L60.0596 82.771C57.5975 82.6698 55.6326 80.6418 55.6326 78.1549C55.6326 75.668 57.5975 73.6401 60.0596 73.5389L60.06 73.5349H86.24C88.7915 73.5349 90.86 71.4665 90.86 68.9149C90.86 66.3634 88.7915 64.2949 86.24 64.2949H24.64L24.6401 64.291C22.1778 64.1902 20.2125 62.1621 20.2125 59.6749C20.2125 57.1878 22.1778 55.1597 24.6401 55.0589L24.64 55.0549H54.67C57.2215 55.0549 59.29 52.9865 59.29 50.4349C59.29 47.8834 57.2215 45.8149 54.67 45.8149H-5.39001C-7.94157 45.8149 -10.01 47.8834 -10.01 50.4349C-10.01 52.9865 -7.94157 55.0549 -5.39001 55.0549H6.15999C8.71155 55.0549 10.78 57.1234 10.78 59.6749C10.78 62.2265 8.71155 64.2949 6.15999 64.2949H0.76999C-1.78157 64.2949 -3.85001 66.3634 -3.85001 68.9149C-3.85001 71.4665 -1.78157 73.5349 0.76999 73.5349H33.495ZM83.545 105.875C83.545 103.323 81.4765 101.255 78.925 101.255H55.055C52.5034 101.255 50.435 103.323 50.435 105.875C50.435 108.426 52.5034 110.495 55.055 110.495H78.925C81.4765 110.495 83.545 108.426 83.545 105.875ZM87.395 82.7749C89.9465 82.7749 92.015 84.8434 92.015 87.3949C92.015 89.9465 89.9465 92.0149 87.395 92.0149H79.695C77.1434 92.0149 75.075 89.9465 75.075 87.3949C75.075 84.8434 77.1434 82.7749 79.695 82.7749H87.395ZM159.775 87.3949C159.775 84.8434 157.707 82.7749 155.155 82.7749H116.27C113.718 82.7749 111.65 84.8434 111.65 87.3949C111.65 89.9465 113.718 92.0149 116.27 92.0149H155.155C157.707 92.0149 159.775 89.9465 159.775 87.3949ZM13.475 82.7749C16.0265 82.7749 18.095 84.8434 18.095 87.3949C18.095 89.9465 16.0265 92.0149 13.475 92.0149H5.77499C3.22343 92.0149 1.15499 89.9465 1.15499 87.3949C1.15499 84.8434 3.22343 82.7749 5.77499 82.7749H13.475ZM138.6 68.9149C138.6 66.3634 136.532 64.2949 133.98 64.2949H126.28C123.728 64.2949 121.66 66.3634 121.66 68.9149C121.66 71.4665 123.728 73.5349 126.28 73.5349H133.98C136.532 73.5349 138.6 71.4665 138.6 68.9149Z" fill="#E29F58"/>
</g>
<mask id="mask2" mask-type="alpha" maskUnits="userSpaceOnUse" x="0" y="0" width="154" height="154">
<circle cx="77" cy="77" r="77" fill="white"/>
</mask>
<g mask="url(#mask2)">
<rect opacity="0.0775757" x="77.385" y="-9.625" width="86.625" height="173.25" fill="black"/>
</g>
</svg>
